<svg xmlns="http://www.w3.org/2000/svg" width="24" height="24"
viewBox="0 0 24 24" fill="currentColor">
  <!-- Filled hexagon -->
  <path d="M12 2.25c.42 0 .84.11 1.21.32l6.75 3.98c.71.42 1.14 1.17 1.14 1.99v7.28c0 .82-.43 1.57-1.14 1.99l-6.75 4.27c-.74.47-1.69.47-2.43 0l-6.75-4.27A2.33 2.33 0 0 1 3 15.82V8.54c0-.82.43-1.57 1.14-1.99l6.75-3.98c.37-.21.79-.32 1.21-.32z"/>

  <!-- Wider V (cutout style using background color when stroked) -->
  <path d="M7.8 7.5l4.2 10l4.2-10"
        fill="none"
        stroke="#ffffff"
        stroke-width="2.4"
        stroke-linecap="round"
        stroke-linejoin="round"/>
</svg>
